<svg xmlns="http://www.w3.org/2000/svg" xmlns:xlink="http://www.w3.org/1999/xlink" viewBox="0 0 864.95 843.68"><defs><style>.cls-1{fill:none;clip-rule:evenodd;}.cls-2{clip-path:url(#clip-path);}.cls-3{fill:#ff7f02;}.cls-10,.cls-11,.cls-12,.cls-13,.cls-14,.cls-15,.cls-16,.cls-17,.cls-18,.cls-19,.cls-20,.cls-21,.cls-22,.cls-23,.cls-24,.cls-25,.cls-26,.cls-27,.cls-28,.cls-29,.cls-3,.cls-30,.cls-31,.cls-32,.cls-33,.cls-34,.cls-35,.cls-36,.cls-37,.cls-38,.cls-39,.cls-4,.cls-40,.cls-41,.cls-42,.cls-43,.cls-44,.cls-45,.cls-46,.cls-47,.cls-48,.cls-49,.cls-5,.cls-50,.cls-51,.cls-52,.cls-53,.cls-54,.cls-55,.cls-56,.cls-57,.cls-58,.cls-59,.cls-6,.cls-60,.cls-61,.cls-62,.cls-63,.cls-64,.cls-65,.cls-66,.cls-67,.cls-68,.cls-69,.cls-7,.cls-70,.cls-71,.cls-72,.cls-73,.cls-74,.cls-75,.cls-76,.cls-77,.cls-78,.cls-79,.cls-8,.cls-80,.cls-81,.cls-82,.cls-83,.cls-84,.cls-85,.cls-86,.cls-87,.cls-88,.cls-89,.cls-9,.cls-90{fill-rule:evenodd;}.cls-4{fill:#ff7e02;}.cls-5{fill:#ff7d02;}.cls-6{fill:#ff7c02;}.cls-7{fill:#ff7b02;}.cls-8{fill:#ff7a02;}.cls-9{fill:#ff7902;}.cls-10{fill:#ff7802;}.cls-11{fill:#ff7702;}.cls-12{fill:#ff7501;}.cls-13{fill:#ff7401;}.cls-14{fill:#ff7301;}.cls-15{fill:#ff7101;}.cls-16{fill:#ff6f01;}.cls-17{fill:#ff6e01;}.cls-18{fill:#ff6c01;}.cls-19{fill:#ff6a00;}.cls-20{fill:#ff6800;}.cls-21{fill:#f60;}.cls-22{fill:#ff8002;}.cls-23{fill:#ff8102;}.cls-24{fill:#ff8203;}.cls-25{fill:#ff8303;}.cls-26{fill:#ff8403;}.cls-27{fill:#ff8503;}.cls-28{fill:#ff8603;}.cls-29{fill:#ff8703;}.cls-30{fill:#ff8803;}.cls-31{fill:#ff8903;}.cls-32{fill:#ff8a03;}.cls-33{fill:#ff8b03;}.cls-34{fill:#ff8c03;}.cls-35{fill:#ff8d04;}.cls-36{fill:#ff8e04;}.cls-37{fill:#ff8f04;}.cls-38{fill:#ff9004;}.cls-39{fill:#ff9104;}.cls-40{fill:#ff9204;}.cls-41{fill:#ff9304;}.cls-42{fill:#ff9404;}.cls-43{fill:#ff9504;}.cls-44{fill:#ff9604;}.cls-45{fill:#ff9704;}.cls-46{fill:#ff9805;}.cls-47{fill:#ff9905;}.cls-48{fill:#ff9a05;}.cls-49{fill:#ff9b05;}.cls-50{fill:#ff9c05;}.cls-51{fill:#ff9d05;}.cls-52{fill:#ff9e05;}.cls-53{fill:#ff9f05;}.cls-54{fill:#ffa005;}.cls-55{fill:#ffa105;}.cls-56{fill:#ffa205;}.cls-57{fill:#ffa306;}.cls-58{fill:#ffa406;}.cls-59{fill:#ffa506;}.cls-60{fill:#ffa606;}.cls-61{fill:#ffa706;}.cls-62{fill:#ffa806;}.cls-63{fill:#ffa906;}.cls-64{fill:#ffaa06;}.cls-65{fill:#ffab06;}.cls-66{fill:#ffac06;}.cls-67{fill:#ffad06;}.cls-68{fill:#ffae07;}.cls-69{fill:#ffaf07;}.cls-70{fill:#ffb007;}.cls-71{fill:#ffb107;}.cls-72{fill:#ffb207;}.cls-73{fill:#ffb307;}.cls-74{fill:#ffb407;}.cls-75{fill:#ffb507;}.cls-76{fill:#ffb607;}.cls-77{fill:#ffb707;}.cls-78{fill:#ffb807;}.cls-79{fill:#ffb908;}.cls-80{fill:#ffba08;}.cls-81{fill:#ffbb08;}.cls-82{fill:#ffbc08;}.cls-83{fill:#ffbd08;}.cls-84{fill:#ffbe08;}.cls-85{fill:#ffea00;}.cls-86{fill:#b3b3b3;}.cls-87{fill:#fff;stroke:#fff;}.cls-87,.cls-88,.cls-89,.cls-90{stroke-miterlimit:22.93;}.cls-87,.cls-89,.cls-90{stroke-width:0.22px;}.cls-88{fill:#e6e7e8;stroke-width:1.42px;}.cls-88,.cls-89,.cls-90{stroke:#fefefe;}.cls-89{fill:#f58634;}.cls-90{fill:#373435;}</style><clipPath id="clip-path"><path class="cls-1" d="M468.7,621.22c6.95,0,51.41-.14,56.91-.43s15.49-1.59,30-3.9,24.91-5.34,31.28-9.09,12.69-25,12.69-37.11q0-19-12.17-54.54l-31.21-91.56,60.92,0a44.73,44.73,0,0,1,42.19,29.78L680,513c8.57,24.26,12.6,43,12.6,56,0,12.45-6.54,34.28-13.14,38.13s-17.4,7-32.4,9.34-25.35,3.71-31,4S475.89,621.22,468.7,621.22Z"/></clipPath></defs><g id="Layer_2" data-name="Layer 2"><g id="Camada_1" data-name="Camada 1"><g class="cls-2"><polygon class="cls-3" points="758.65 521.98 758.71 521.91 597.1 378.74 597.04 378.81 758.65 521.98"/><polygon class="cls-4" points="758.98 521.61 758.16 522.52 596.56 379.35 597.37 378.44 758.98 521.61"/><polygon class="cls-5" points="758.44 522.22 757.62 523.13 596.01 379.96 596.83 379.05 758.44 522.22"/><polygon class="cls-6" points="757.89 522.83 757.08 523.74 595.47 380.57 596.29 379.66 757.89 522.83"/><polygon class="cls-7" points="757.35 523.44 756.53 524.35 594.93 381.18 595.74 380.27 757.35 523.44"/><polygon class="cls-8" points="756.8 524.05 755.99 524.96 594.38 381.79 595.2 380.88 756.8 524.05"/><polygon class="cls-9" points="756.26 524.66 755.45 525.57 593.84 382.4 594.65 381.49 756.26 524.66"/><polygon class="cls-10" points="755.72 525.26 754.9 526.18 593.29 383.01 594.11 382.1 755.72 525.26"/><polygon class="cls-11" points="755.17 525.87 754.36 526.79 592.75 383.62 593.57 382.7 755.17 525.87"/><polygon class="cls-12" points="754.63 526.48 753.81 527.4 592.21 384.23 593.02 383.31 754.63 526.48"/><polygon class="cls-13" points="754.09 527.09 753.27 528.01 591.66 384.84 592.48 383.92 754.09 527.09"/><polygon class="cls-14" points="753.54 527.7 752.73 528.62 591.12 385.44 591.93 384.53 753.54 527.7"/><polygon class="cls-15" points="753 528.31 752.18 529.23 590.58 386.06 591.39 385.14 753 528.31"/><polygon class="cls-16" points="752.46 528.92 751.64 529.84 590.03 386.66 590.85 385.75 752.46 528.92"/><polygon class="cls-17" points="751.91 529.53 751.1 530.44 589.49 387.27 590.3 386.36 751.91 529.53"/><polygon class="cls-18" points="751.37 530.14 750.55 531.05 588.95 387.88 589.76 386.97 751.37 530.14"/><polygon class="cls-19" points="750.82 530.75 750.01 531.66 588.4 388.49 589.22 387.58 750.82 530.75"/><polygon class="cls-20" points="750.28 531.36 749.46 532.27 587.86 389.1 588.67 388.19 750.28 531.36"/><polygon class="cls-21" points="749.74 531.97 748.92 532.88 587.31 389.71 588.13 388.8 749.74 531.97"/><polygon class="cls-20" points="749.19 532.58 748.38 533.49 586.77 390.32 587.59 389.41 749.19 532.58"/><polygon class="cls-19" points="748.65 533.19 747.83 534.1 586.23 390.93 587.04 390.01 748.65 533.19"/><polygon class="cls-18" points="748.1 533.79 747.29 534.71 585.68 391.54 586.5 390.62 748.1 533.79"/><polygon class="cls-17" points="747.56 534.4 746.75 535.32 585.14 392.15 585.95 391.23 747.56 534.4"/><polygon class="cls-16" points="747.02 535.01 746.2 535.93 584.59 392.76 585.41 391.84 747.02 535.01"/><polygon class="cls-15" points="746.47 535.62 745.66 536.54 584.05 393.37 584.87 392.45 746.47 535.62"/><polygon class="cls-14" points="745.93 536.23 745.11 537.15 583.51 393.98 584.32 393.06 745.93 536.23"/><polygon class="cls-13" points="745.38 536.84 744.57 537.75 582.96 394.58 583.78 393.67 745.38 536.84"/><polygon class="cls-12" points="744.84 537.45 744.03 538.36 582.42 395.19 583.24 394.28 744.84 537.45"/><polygon class="cls-11" points="744.3 538.06 743.48 538.97 581.88 395.8 582.69 394.89 744.3 538.06"/><polygon class="cls-10" points="743.75 538.67 742.94 539.58 581.33 396.41 582.15 395.5 743.75 538.67"/><polygon class="cls-9" points="743.21 539.28 742.39 540.19 580.79 397.02 581.6 396.11 743.21 539.28"/><polygon class="cls-8" points="742.67 539.89 741.85 540.8 580.24 397.63 581.06 396.72 742.67 539.89"/><polygon class="cls-7" points="742.12 540.5 741.31 541.41 579.7 398.24 580.52 397.33 742.12 540.5"/><polygon class="cls-6" points="741.58 541.11 740.76 542.02 579.16 398.85 579.97 397.94 741.58 541.11"/><polygon class="cls-5" points="741.03 541.72 740.22 542.63 578.61 399.46 579.43 398.54 741.03 541.72"/><polygon class="cls-4" points="740.49 542.32 739.68 543.24 578.07 400.07 578.88 399.15 740.49 542.32"/><polygon class="cls-3" points="739.95 542.93 739.13 543.85 577.52 400.68 578.34 399.76 739.95 542.93"/><polygon class="cls-22" points="739.4 543.54 738.59 544.46 576.98 401.29 577.8 400.37 739.4 543.54"/><polygon class="cls-23" points="738.86 544.15 738.04 545.07 576.44 401.89 577.25 400.98 738.86 544.15"/><polygon class="cls-24" points="738.32 544.76 737.5 545.67 575.89 402.5 576.71 401.59 738.32 544.76"/><polygon class="cls-24" points="737.77 545.37 736.96 546.28 575.35 403.11 576.16 402.2 737.77 545.37"/><polygon class="cls-25" points="737.23 545.98 736.41 546.89 574.81 403.72 575.62 402.81 737.23 545.98"/><polygon class="cls-26" points="736.68 546.59 735.87 547.5 574.26 404.33 575.08 403.42 736.68 546.59"/><polygon class="cls-27" points="736.14 547.2 735.33 548.11 573.72 404.94 574.53 404.03 736.14 547.2"/><polygon class="cls-27" points="735.6 547.81 734.78 548.72 573.17 405.55 573.99 404.64 735.6 547.81"/><polygon class="cls-28" points="735.05 548.42 734.24 549.33 572.63 406.16 573.45 405.25 735.05 548.42"/><polygon class="cls-29" points="734.51 549.03 733.69 549.94 572.09 406.77 572.9 405.86 734.51 549.03"/><polygon class="cls-29" points="733.97 549.63 733.15 550.55 571.54 407.38 572.36 406.46 733.97 549.63"/><polygon class="cls-30" points="733.42 550.25 732.61 551.16 571 407.99 571.82 407.07 733.42 550.25"/><polygon class="cls-30" points="732.88 550.85 732.06 551.77 570.46 408.6 571.27 407.68 732.88 550.85"/><polygon class="cls-31" points="732.33 551.46 731.52 552.38 569.91 409.21 570.73 408.29 732.33 551.46"/><polygon class="cls-31" points="731.79 552.07 730.98 552.99 569.37 409.82 570.18 408.9 731.79 552.07"/><polygon class="cls-32" points="731.25 552.68 730.43 553.6 568.82 410.43 569.64 409.51 731.25 552.68"/><polygon class="cls-32" points="730.7 553.29 729.89 554.21 568.28 411.03 569.1 410.12 730.7 553.29"/><polygon class="cls-33" points="730.16 553.9 729.34 554.81 567.74 411.64 568.55 410.73 730.16 553.9"/><polygon class="cls-33" points="729.62 554.51 728.8 555.42 567.19 412.25 568.01 411.34 729.62 554.51"/><polygon class="cls-34" points="729.07 555.12 728.26 556.03 566.65 412.86 567.47 411.95 729.07 555.12"/><polygon class="cls-34" points="728.53 555.73 727.71 556.64 566.11 413.47 566.92 412.56 728.53 555.73"/><polygon class="cls-35" points="727.98 556.34 727.17 557.25 565.56 414.08 566.38 413.17 727.98 556.34"/><polygon class="cls-35" points="727.44 556.95 726.62 557.86 565.02 414.69 565.83 413.78 727.44 556.95"/><polygon class="cls-35" points="726.9 557.56 726.08 558.47 564.47 415.3 565.29 414.38 726.9 557.56"/><polygon class="cls-36" points="726.35 558.16 725.54 559.08 563.93 415.91 564.75 414.99 726.35 558.16"/><polygon class="cls-36" points="725.81 558.77 724.99 559.69 563.39 416.52 564.2 415.6 725.81 558.77"/><polygon class="cls-37" points="725.26 559.38 724.45 560.3 562.84 417.13 563.66 416.21 725.26 559.38"/><polygon class="cls-37" points="724.72 559.99 723.9 560.91 562.3 417.74 563.11 416.82 724.72 559.99"/><polygon class="cls-37" points="724.18 560.6 723.36 561.52 561.75 418.35 562.57 417.43 724.18 560.6"/><polygon class="cls-38" points="723.63 561.21 722.82 562.13 561.21 418.95 562.03 418.04 723.63 561.21"/><polygon class="cls-38" points="723.09 561.82 722.27 562.73 560.67 419.56 561.48 418.65 723.09 561.82"/><polygon class="cls-38" points="722.55 562.43 721.73 563.34 560.12 420.17 560.94 419.26 722.55 562.43"/><polygon class="cls-39" points="722 563.04 721.19 563.95 559.58 420.78 560.39 419.87 722 563.04"/><polygon class="cls-39" points="721.46 563.65 720.64 564.56 559.04 421.39 559.85 420.48 721.46 563.65"/><polygon class="cls-39" points="720.91 564.26 720.1 565.17 558.49 422 559.31 421.09 720.91 564.26"/><polygon class="cls-40" points="720.37 564.87 719.55 565.78 557.95 422.61 558.76 421.7 720.37 564.87"/><polygon class="cls-40" points="719.83 565.48 719.01 566.39 557.4 423.22 558.22 422.31 719.83 565.48"/><polygon class="cls-40" points="719.28 566.09 718.47 567 556.86 423.83 557.68 422.92 719.28 566.09"/><polygon class="cls-41" points="718.74 566.7 717.92 567.61 556.32 424.44 557.13 423.52 718.74 566.7"/><polygon class="cls-41" points="718.2 567.3 717.38 568.22 555.77 425.05 556.59 424.13 718.2 567.3"/><polygon class="cls-41" points="717.65 567.91 716.84 568.83 555.23 425.66 556.04 424.74 717.65 567.91"/><polygon class="cls-41" points="717.11 568.52 716.29 569.44 554.68 426.26 555.5 425.35 717.11 568.52"/><polygon class="cls-42" points="716.56 569.13 715.75 570.04 554.14 426.88 554.96 425.96 716.56 569.13"/><polygon class="cls-42" points="716.02 569.74 715.21 570.65 553.6 427.48 554.41 426.57 716.02 569.74"/><polygon class="cls-42" points="715.48 570.35 714.66 571.26 553.05 428.09 553.87 427.18 715.48 570.35"/><polygon class="cls-43" points="714.93 570.96 714.12 571.87 552.51 428.7 553.33 427.79 714.93 570.96"/><polygon class="cls-43" points="714.39 571.57 713.57 572.48 551.97 429.31 552.78 428.4 714.39 571.57"/><polygon class="cls-43" points="713.85 572.18 713.03 573.09 551.42 429.92 552.24 429.01 713.85 572.18"/><polygon class="cls-44" points="713.3 572.79 712.49 573.7 550.88 430.53 551.69 429.62 713.3 572.79"/><polygon class="cls-44" points="712.76 573.4 711.94 574.31 550.34 431.14 551.15 430.23 712.76 573.4"/><polygon class="cls-44" points="712.21 574 711.4 574.92 549.79 431.75 550.61 430.83 712.21 574"/><polygon class="cls-45" points="711.67 574.62 710.85 575.53 549.25 432.36 550.06 431.44 711.67 574.62"/><polygon class="cls-45" points="711.13 575.22 710.31 576.14 548.7 432.97 549.52 432.05 711.13 575.22"/><polygon class="cls-45" points="710.58 575.83 709.77 576.75 548.16 433.58 548.98 432.66 710.58 575.83"/><polygon class="cls-46" points="710.04 576.44 709.22 577.36 547.62 434.19 548.43 433.27 710.04 576.44"/><polygon class="cls-46" points="709.5 577.05 708.68 577.97 547.07 434.8 547.89 433.88 709.5 577.05"/><polygon class="cls-46" points="708.95 577.66 708.13 578.58 546.53 435.4 547.34 434.49 708.95 577.66"/><polygon class="cls-47" points="708.41 578.27 707.59 579.18 545.98 436.01 546.8 435.1 708.41 578.27"/><polygon class="cls-47" points="707.86 578.88 707.05 579.79 545.44 436.62 546.26 435.71 707.86 578.88"/><polygon class="cls-47" points="707.32 579.49 706.5 580.4 544.9 437.23 545.71 436.32 707.32 579.49"/><polygon class="cls-48" points="706.78 580.1 705.96 581.01 544.35 437.84 545.17 436.93 706.78 580.1"/><polygon class="cls-48" points="706.23 580.71 705.42 581.62 543.81 438.45 544.63 437.54 706.23 580.71"/><polygon class="cls-48" points="705.69 581.32 704.87 582.23 543.26 439.06 544.08 438.15 705.69 581.32"/><polygon class="cls-49" points="705.14 581.93 704.33 582.84 542.72 439.67 543.54 438.75 705.14 581.93"/><polygon class="cls-49" points="704.6 582.53 703.78 583.45 542.18 440.28 542.99 439.36 704.6 582.53"/><polygon class="cls-50" points="704.06 583.14 703.24 584.06 541.63 440.89 542.45 439.97 704.06 583.14"/><polygon class="cls-50" points="703.51 583.75 702.7 584.67 541.09 441.5 541.91 440.58 703.51 583.75"/><polygon class="cls-50" points="702.97 584.36 702.15 585.28 540.55 442.11 541.36 441.19 702.97 584.36"/><polygon class="cls-51" points="702.42 584.97 701.61 585.89 540 442.71 540.82 441.8 702.42 584.97"/><polygon class="cls-51" points="701.88 585.58 701.07 586.5 539.46 443.32 540.27 442.41 701.88 585.58"/><polygon class="cls-52" points="701.34 586.19 700.52 587.1 538.91 443.93 539.73 443.02 701.34 586.19"/><polygon class="cls-52" points="700.79 586.8 699.98 587.71 538.37 444.54 539.19 443.63 700.79 586.8"/><polygon class="cls-52" points="700.25 587.41 699.43 588.32 537.83 445.15 538.64 444.24 700.25 587.41"/><polygon class="cls-53" points="699.71 588.02 698.89 588.93 537.28 445.76 538.1 444.85 699.71 588.02"/><polygon class="cls-53" points="699.16 588.63 698.35 589.54 536.74 446.37 537.56 445.46 699.16 588.63"/><polygon class="cls-54" points="698.62 589.24 697.8 590.15 536.2 446.98 537.01 446.07 698.62 589.24"/><polygon class="cls-54" points="698.08 589.85 697.26 590.76 535.65 447.59 536.47 446.68 698.08 589.85"/><polygon class="cls-54" points="697.53 590.46 696.72 591.37 535.11 448.2 535.92 447.29 697.53 590.46"/><polygon class="cls-55" points="696.99 591.07 696.17 591.98 534.56 448.81 535.38 447.89 696.99 591.07"/><polygon class="cls-55" points="696.44 591.67 695.63 592.59 534.02 449.42 534.84 448.5 696.44 591.67"/><polygon class="cls-56" points="695.9 592.28 695.08 593.2 533.48 450.03 534.29 449.11 695.9 592.28"/><polygon class="cls-56" points="695.36 592.89 694.54 593.81 532.93 450.64 533.75 449.72 695.36 592.89"/><polygon class="cls-57" points="694.81 593.5 694 594.42 532.39 451.25 533.21 450.33 694.81 593.5"/><polygon class="cls-57" points="694.27 594.11 693.45 595.02 531.85 451.85 532.66 450.94 694.27 594.11"/><polygon class="cls-58" points="693.72 594.72 692.91 595.63 531.3 452.46 532.12 451.55 693.72 594.72"/><polygon class="cls-58" points="693.18 595.33 692.37 596.24 530.76 453.07 531.57 452.16 693.18 595.33"/><polygon class="cls-59" points="692.64 595.94 691.82 596.85 530.21 453.68 531.03 452.77 692.64 595.94"/><polygon class="cls-59" points="692.09 596.55 691.28 597.46 529.67 454.29 530.49 453.38 692.09 596.55"/><polygon class="cls-60" points="691.55 597.16 690.73 598.07 529.13 454.9 529.94 453.99 691.55 597.16"/><polygon class="cls-60" points="691 597.77 690.19 598.68 528.58 455.51 529.4 454.6 691 597.77"/><polygon class="cls-61" points="690.46 598.38 689.65 599.29 528.04 456.12 528.86 455.2 690.46 598.38"/><polygon class="cls-61" points="668.63 594.03 667.82 594.95 506.21 451.78 507.03 450.86 668.63 594.03"/><polygon class="cls-62" points="689.37 599.59 688.56 600.51 526.95 457.34 527.77 456.42 689.37 599.59"/><polygon class="cls-62" points="688.83 600.2 688.01 601.12 526.41 457.95 527.22 457.03 688.83 600.2"/><polygon class="cls-63" points="688.29 600.81 687.47 601.73 525.86 458.56 526.68 457.64 688.29 600.81"/><polygon class="cls-63" points="687.74 601.42 686.93 602.34 525.32 459.17 526.14 458.25 687.74 601.42"/><polygon class="cls-64" points="687.2 602.03 686.38 602.95 524.78 459.77 525.59 458.86 687.2 602.03"/><polygon class="cls-64" points="686.65 602.64 685.84 603.55 524.23 460.38 525.05 459.47 686.65 602.64"/><polygon class="cls-65" points="686.11 603.25 685.3 604.16 523.69 460.99 524.5 460.08 686.11 603.25"/><polygon class="cls-65" points="685.57 603.86 684.75 604.77 523.14 461.6 523.96 460.69 685.57 603.86"/><polygon class="cls-66" points="685.02 604.47 684.21 605.38 522.6 462.21 523.42 461.3 685.02 604.47"/><polygon class="cls-66" points="684.48 605.08 683.66 605.99 522.06 462.82 522.87 461.91 684.48 605.08"/><polygon class="cls-67" points="683.94 605.69 683.12 606.6 521.51 463.43 522.33 462.52 683.94 605.69"/><polygon class="cls-68" points="683.39 606.3 682.58 607.21 520.97 464.04 521.78 463.13 683.39 606.3"/><polygon class="cls-68" points="682.85 606.9 682.03 607.82 520.43 464.65 521.24 463.73 682.85 606.9"/><polygon class="cls-69" points="682.3 607.51 681.49 608.43 519.88 465.26 520.7 464.34 682.3 607.51"/><polygon class="cls-69" points="681.76 608.12 680.95 609.04 519.34 465.87 520.15 464.95 681.76 608.12"/><polygon class="cls-70" points="681.22 608.73 680.4 609.65 518.79 466.48 519.61 465.56 681.22 608.73"/><polygon class="cls-71" points="680.67 609.34 679.86 610.26 518.25 467.08 519.07 466.17 680.67 609.34"/><polygon class="cls-71" points="680.13 609.95 679.31 610.87 517.71 467.69 518.52 466.78 680.13 609.95"/><polygon class="cls-72" points="679.59 610.56 678.77 611.47 517.16 468.3 517.98 467.39 679.59 610.56"/><polygon class="cls-73" points="679.04 611.17 678.23 612.08 516.62 468.91 517.43 468 679.04 611.17"/><polygon class="cls-73" points="678.5 611.78 677.68 612.69 516.08 469.52 516.89 468.61 678.5 611.78"/><polygon class="cls-74" points="677.95 612.39 677.14 613.3 515.53 470.13 516.35 469.22 677.95 612.39"/><polygon class="cls-75" points="677.41 613 676.6 613.91 514.99 470.74 515.8 469.83 677.41 613"/><polygon class="cls-75" points="676.87 613.61 676.05 614.52 514.44 471.35 515.26 470.44 676.87 613.61"/><polygon class="cls-76" points="676.32 614.22 675.51 615.13 513.9 471.96 514.72 471.05 676.32 614.22"/><polygon class="cls-77" points="675.78 614.83 674.96 615.74 513.36 472.57 514.17 471.65 675.78 614.83"/><polygon class="cls-78" points="675.24 615.43 674.42 616.35 512.81 473.18 513.63 472.26 675.24 615.43"/><polygon class="cls-78" points="674.69 616.04 673.88 616.96 512.27 473.79 513.08 472.87 674.69 616.04"/><polygon class="cls-79" points="674.15 616.65 673.33 617.57 511.73 474.4 512.54 473.48 674.15 616.65"/><polygon class="cls-80" points="673.6 617.26 672.79 618.18 511.18 475.01 512 474.09 673.6 617.26"/><polygon class="cls-81" points="673.06 617.87 672.24 618.79 510.64 475.62 511.45 474.7 673.06 617.87"/><polygon class="cls-81" points="672.52 618.48 671.7 619.39 510.09 476.22 510.91 475.31 672.52 618.48"/><polygon class="cls-82" points="671.97 619.09 671.16 620 509.55 476.83 510.37 475.92 671.97 619.09"/><polygon class="cls-83" points="671.43 619.7 670.61 620.61 509.01 477.44 509.82 476.53 671.43 619.7"/><polygon class="cls-84" points="670.88 620.31 670.07 621.22 508.46 478.05 509.28 477.14 670.88 620.31"/><polygon class="cls-84" points="670.34 620.92 669.52 621.83 507.92 478.66 508.73 477.75 670.34 620.92"/><polygon class="cls-84" points="669.8 621.53 668.98 622.44 507.38 479.27 508.19 478.36 669.8 621.53"/><polygon class="cls-84" points="669.25 622.14 668.44 623.05 506.83 479.88 507.65 478.97 669.25 622.14"/><polygon class="cls-84" points="668.71 622.75 667.89 623.66 506.29 480.49 507.1 479.57 668.71 622.75"/><polygon class="cls-84" points="668.17 623.36 667.35 624.27 505.74 481.1 506.56 480.18 668.17 623.36"/><polygon class="cls-84" points="667.62 623.96 666.81 624.88 505.2 481.71 506.01 480.79 667.62 623.96"/><polygon class="cls-84" points="667.08 624.57 666.26 625.49 504.66 482.32 505.47 481.4 667.08 624.57"/><polygon class="cls-84" points="666.53 625.18 665.72 626.1 504.11 482.93 504.93 482.01 666.53 625.18"/><polygon class="cls-84" points="665.99 625.79 665.17 626.71 503.57 483.54 504.38 482.62 665.99 625.79"/><polygon class="cls-84" points="665.45 626.4 664.63 627.32 503.02 484.14 503.84 483.23 665.45 626.4"/><polygon class="cls-84" points="664.9 627.01 664.09 627.92 502.48 484.75 503.3 483.84 664.9 627.01"/><polygon class="cls-84" points="664.36 627.62 663.54 628.53 501.94 485.36 502.75 484.45 664.36 627.62"/><polygon class="cls-84" points="663.82 628.23 663 629.14 501.39 485.97 502.21 485.06 663.82 628.23"/><polygon class="cls-84" points="663.27 628.84 662.46 629.75 500.85 486.58 501.67 485.67 663.27 628.84"/><polygon class="cls-84" points="662.73 629.45 661.91 630.36 500.31 487.19 501.12 486.28 662.73 629.45"/><polygon class="cls-84" points="662.18 630.06 661.37 630.97 499.76 487.8 500.58 486.89 662.18 630.06"/><polygon class="cls-84" points="661.64 630.67 660.82 631.58 499.22 488.41 500.03 487.5 661.64 630.67"/><polygon class="cls-84" points="661.1 631.27 660.28 632.19 498.67 489.02 499.49 488.1 661.1 631.27"/><polygon class="cls-84" points="660.55 631.88 659.74 632.8 498.13 489.63 498.95 488.71 660.55 631.88"/><polygon class="cls-84" points="660.01 632.49 659.19 633.41 497.59 490.24 498.4 489.32 660.01 632.49"/><polygon class="cls-84" points="659.47 633.1 658.65 634.02 497.04 490.85 497.86 489.93 659.47 633.1"/><polygon class="cls-84" points="658.92 633.71 658.11 634.63 496.5 491.45 497.31 490.54 658.92 633.71"/><polygon class="cls-84" points="658.38 634.32 657.56 635.24 495.95 492.06 496.77 491.15 658.38 634.32"/><polygon class="cls-84" points="657.83 634.93 657.02 635.85 495.41 492.67 496.23 491.76 657.83 634.93"/><polygon class="cls-84" points="657.29 635.54 656.47 636.45 494.87 493.28 495.68 492.37 657.29 635.54"/><polygon class="cls-84" points="656.75 636.15 655.93 637.06 494.32 493.89 495.14 492.98 656.75 636.15"/><polygon class="cls-84" points="656.2 636.76 655.39 637.67 493.78 494.5 494.6 493.59 656.2 636.76"/><polygon class="cls-84" points="655.66 637.37 654.84 638.28 493.24 495.11 494.05 494.2 655.66 637.37"/><polygon class="cls-84" points="655.12 637.98 654.3 638.89 492.69 495.72 493.51 494.81 655.12 637.98"/><polygon class="cls-84" points="654.57 638.59 653.75 639.5 492.15 496.33 492.96 495.42 654.57 638.59"/><polygon class="cls-84" points="654.03 639.2 653.21 640.11 491.6 496.94 492.42 496.02 654.03 639.2"/><polygon class="cls-84" points="653.48 639.8 652.67 640.72 491.06 497.55 491.88 496.63 653.48 639.8"/><polygon class="cls-84" points="652.94 640.41 652.12 641.33 490.52 498.16 491.33 497.24 652.94 640.41"/><polygon class="cls-84" points="652.39 641.02 651.58 641.94 489.97 498.77 490.79 497.85 652.39 641.02"/><polygon class="cls-84" points="651.85 641.63 651.04 642.55 489.43 499.38 490.25 498.46 651.85 641.63"/><polygon class="cls-84" points="651.31 642.24 650.49 643.16 488.88 499.99 489.7 499.07 651.31 642.24"/><polygon class="cls-84" points="650.76 642.85 649.95 643.76 488.34 500.59 489.16 499.68 650.76 642.85"/><polygon class="cls-84" points="650.22 643.46 649.4 644.37 487.8 501.2 488.61 500.29 650.22 643.46"/><polygon class="cls-84" points="649.68 644.07 648.86 644.98 487.25 501.81 488.07 500.9 649.68 644.07"/><polygon class="cls-84" points="649.13 644.68 648.32 645.59 486.71 502.42 487.53 501.51 649.13 644.68"/><polygon class="cls-84" points="648.59 645.29 647.77 646.2 486.17 503.03 486.98 502.12 648.59 645.29"/><polygon class="cls-84" points="648.04 645.9 647.23 646.81 485.62 503.64 486.44 502.73 648.04 645.9"/><polygon class="cls-84" points="647.5 646.51 646.69 647.42 485.08 504.25 485.89 503.34 647.5 646.51"/><polygon class="cls-84" points="646.96 647.12 646.14 648.03 484.54 504.86 485.35 503.94 646.96 647.12"/><polygon class="cls-84" points="646.41 647.73 645.6 648.64 483.99 505.47 484.81 504.55 646.41 647.73"/><polygon class="cls-84" points="645.87 648.33 645.05 649.25 483.45 506.08 484.26 505.16 645.87 648.33"/><polygon class="cls-84" points="645.33 648.94 644.51 649.86 482.9 506.69 483.72 505.77 645.33 648.94"/><polygon class="cls-84" points="644.78 649.55 643.97 650.47 482.36 507.3 483.18 506.38 644.78 649.55"/><polygon class="cls-84" points="644.24 650.16 643.42 651.08 481.82 507.9 482.63 506.99 644.24 650.16"/><polygon class="cls-84" points="643.7 650.77 642.88 651.68 481.27 508.51 482.09 507.6 643.7 650.77"/><polygon class="cls-84" points="643.15 651.38 642.34 652.29 480.73 509.12 481.54 508.21 643.15 651.38"/><polygon class="cls-84" points="642.61 651.99 641.79 652.9 480.19 509.73 481 508.82 642.61 651.99"/><polygon class="cls-84" points="642.06 652.6 641.25 653.51 479.64 510.34 480.46 509.43 642.06 652.6"/><polygon class="cls-84" points="641.52 653.21 640.7 654.12 479.1 510.95 479.91 510.04 641.52 653.21"/><polygon class="cls-84" points="640.98 653.82 640.16 654.73 478.55 511.56 479.37 510.65 640.98 653.82"/><polygon class="cls-84" points="640.43 654.43 639.62 655.34 478.01 512.17 478.82 511.26 640.43 654.43"/><polygon class="cls-84" points="639.89 655.04 639.07 655.95 477.47 512.78 478.28 511.87 639.89 655.04"/><polygon class="cls-84" points="639.34 655.64 638.53 656.56 476.92 513.39 477.74 512.48 639.34 655.64"/><polygon class="cls-84" points="638.8 656.25 637.99 657.17 476.38 514 477.19 513.08 638.8 656.25"/><polygon class="cls-84" points="638.26 656.86 637.44 657.78 475.83 514.61 476.65 513.69 638.26 656.86"/><polygon class="cls-84" points="637.71 657.47 636.9 658.39 475.29 515.22 476.11 514.3 637.71 657.47"/><polygon class="cls-84" points="637.17 658.08 636.35 659 474.75 515.83 475.56 514.91 637.17 658.08"/><polygon class="cls-84" points="636.63 658.69 635.81 659.61 474.2 516.43 475.02 515.52 636.63 658.69"/><polygon class="cls-84" points="636.08 659.3 635.27 660.22 473.66 517.04 474.48 516.13 636.08 659.3"/><polygon class="cls-84" points="635.54 659.91 634.72 660.82 473.12 517.65 473.93 516.74 635.54 659.91"/><polygon class="cls-84" points="634.99 660.52 634.18 661.43 472.57 518.26 473.39 517.35 634.99 660.52"/><polygon class="cls-84" points="634.45 661.13 633.63 662.04 472.03 518.87 472.84 517.96 634.45 661.13"/><polygon class="cls-84" points="633.91 661.74 633.09 662.65 471.48 519.48 472.3 518.57 633.91 661.74"/><polygon class="cls-84" points="633.36 662.35 632.55 663.26 470.94 520.09 471.76 519.18 633.36 662.35"/><polygon class="cls-84" points="632.82 662.96 632 663.87 470.4 520.7 471.21 519.79 632.82 662.96"/><polygon class="cls-84" points="632.27 663.57 631.46 664.48 469.85 521.31 470.67 520.39 632.27 663.57"/><polygon class="cls-84" points="631.73 664.17 630.91 665.09 469.31 521.92 470.12 521 631.73 664.17"/><polygon class="cls-84" points="631.19 664.78 630.37 665.7 468.76 522.53 469.58 521.61 631.19 664.78"/><polygon class="cls-84" points="630.64 665.39 629.83 666.31 468.22 523.14 469.04 522.22 630.64 665.39"/><polygon class="cls-84" points="630.1 666 629.28 666.92 467.68 523.75 468.49 522.83 630.1 666"/><polygon class="cls-84" points="629.56 666.61 628.74 667.53 467.13 524.36 467.95 523.44 629.56 666.61"/><polygon class="cls-84" points="629.01 667.22 628.2 668.13 466.59 524.96 467.4 524.05 629.01 667.22"/><polygon class="cls-84" points="628.47 667.83 627.65 668.74 466.05 525.57 466.86 524.66 628.47 667.83"/><polygon class="cls-84" points="627.92 668.44 627.11 669.35 465.5 526.18 466.32 525.27 627.92 668.44"/><polygon class="cls-84" points="627.38 669.05 626.57 669.96 464.96 526.79 465.77 525.88 627.38 669.05"/><polygon class="cls-84" points="626.84 669.66 626.02 670.57 464.41 527.4 465.23 526.49 626.84 669.66"/><polygon class="cls-84" points="626.29 670.27 625.48 671.18 463.87 528.01 464.69 527.1 626.29 670.27"/><polygon class="cls-84" points="625.75 670.88 624.93 671.79 463.33 528.62 464.14 527.71 625.75 670.88"/><polygon class="cls-84" points="625.21 671.49 624.39 672.4 462.78 529.23 463.6 528.32 625.21 671.49"/><polygon class="cls-84" points="624.66 672.1 623.85 673.01 462.24 529.84 463.06 528.92 624.66 672.1"/><polygon class="cls-84" points="624.12 672.71 623.3 673.62 461.69 530.45 462.51 529.53 624.12 672.71"/><polygon class="cls-84" points="623.57 673.31 622.76 674.23 461.15 531.06 461.97 530.14 623.57 673.31"/><polygon class="cls-84" points="623.03 673.92 622.22 674.84 460.61 531.67 461.42 530.75 623.03 673.92"/><polygon class="cls-84" points="622.49 674.53 621.67 675.45 460.06 532.27 460.88 531.36 622.49 674.53"/><polygon class="cls-84" points="621.94 675.14 621.13 676.06 459.52 532.88 460.34 531.97 621.94 675.14"/><polygon class="cls-84" points="621.4 675.75 620.58 676.66 458.98 533.49 459.79 532.58 621.4 675.75"/><polygon class="cls-84" points="620.86 676.36 620.04 677.27 458.43 534.1 459.25 533.19 620.86 676.36"/><polygon class="cls-84" points="620.31 676.97 619.5 677.88 457.89 534.71 458.7 533.8 620.31 676.97"/><polygon class="cls-84" points="619.77 677.58 618.95 678.49 457.35 535.32 458.16 534.41 619.77 677.58"/><polygon class="cls-84" points="619.22 678.19 618.41 679.1 456.8 535.93 457.62 535.02 619.22 678.19"/><polygon class="cls-84" points="618.68 678.8 617.86 679.71 456.26 536.54 457.07 535.63 618.68 678.8"/><polygon class="cls-84" points="618.14 679.41 617.32 680.32 455.71 537.15 456.53 536.24 618.14 679.41"/><polygon class="cls-84" points="617.59 680.02 616.78 680.93 455.17 537.76 455.99 536.85 617.59 680.02"/><polygon class="cls-84" points="617.05 680.63 616.23 681.54 454.63 538.37 455.44 537.45 617.05 680.63"/><polygon class="cls-84" points="616.5 681.23 615.69 682.15 454.08 538.98 454.9 538.06 616.5 681.23"/><polygon class="cls-84" points="615.96 681.84 615.14 682.76 453.54 539.59 454.35 538.67 615.96 681.84"/><polygon class="cls-84" points="615.42 682.45 614.6 683.37 452.99 540.2 453.81 539.28 615.42 682.45"/><polygon class="cls-84" points="614.87 683.06 614.06 683.98 452.45 540.8 453.27 539.89 614.87 683.06"/><polygon class="cls-84" points="614.33 683.67 613.51 684.59 451.91 541.41 452.72 540.5 614.33 683.67"/><polygon class="cls-84" points="613.79 684.28 612.97 685.19 451.36 542.02 452.18 541.11 613.79 684.28"/><polygon class="cls-84" points="613.24 684.89 612.43 685.8 450.82 542.63 451.63 541.72 613.24 684.89"/><polygon class="cls-84" points="612.7 685.5 611.88 686.41 450.28 543.24 451.09 542.33 612.7 685.5"/><polygon class="cls-84" points="612.15 686.11 611.34 687.02 449.73 543.85 450.55 542.94 612.15 686.11"/><polygon class="cls-84" points="611.61 686.72 610.79 687.63 449.19 544.46 450 543.55 611.61 686.72"/><polygon class="cls-85" points="611.07 687.33 610.25 688.24 448.64 545.07 449.46 544.16 611.07 687.33"/><polygon class="cls-84" points="610.52 687.94 609.71 688.85 448.1 545.68 448.92 544.76 610.52 687.94"/><polygon class="cls-84" points="609.98 688.54 609.16 689.46 447.56 546.29 448.37 545.37 609.98 688.54"/><polygon class="cls-84" points="609.43 689.15 608.62 690.07 447.01 546.9 447.83 545.98 609.43 689.15"/><polygon class="cls-84" points="608.89 689.76 608.08 690.68 446.47 547.51 447.29 546.59 608.89 689.76"/><polygon class="cls-84" points="608.35 690.37 607.53 691.29 445.93 548.12 446.74 547.2 608.35 690.37"/><polygon class="cls-84" points="607.8 690.98 606.99 691.9 445.38 548.73 446.2 547.81 607.8 690.98"/><polygon class="cls-84" points="607.26 691.59 606.44 692.5 444.84 549.34 445.65 548.42 607.26 691.59"/><polygon class="cls-84" points="606.72 692.2 605.9 693.12 444.29 549.94 445.11 549.03 606.72 692.2"/><polygon class="cls-84" points="606.17 692.81 605.36 693.72 443.75 550.55 444.57 549.64 606.17 692.81"/><polygon class="cls-84" points="605.63 693.42 604.81 694.33 443.21 551.16 444.02 550.25 605.63 693.42"/><polygon class="cls-84" points="605.09 694.03 604.27 694.94 442.66 551.77 443.48 550.86 605.09 694.03"/><polygon class="cls-84" points="604.54 694.64 603.73 695.55 442.12 552.38 442.93 551.47 604.54 694.64"/><polygon class="cls-84" points="604 695.25 603.18 696.16 441.57 552.99 442.39 552.08 604 695.25"/><polygon class="cls-84" points="603.45 695.86 602.64 696.77 441.03 553.6 441.85 552.68 603.45 695.86"/><polygon class="cls-84" points="602.91 696.47 602.09 697.38 440.49 554.21 441.3 553.29 602.91 696.47"/><polygon class="cls-84" points="602.37 697.08 601.55 697.99 439.94 554.82 440.76 553.9 602.37 697.08"/><polygon class="cls-84" points="601.82 697.68 601.01 698.6 439.4 555.43 440.21 554.51 601.82 697.68"/><polygon class="cls-84" points="601.28 698.29 600.46 699.21 438.86 556.04 439.67 555.12 601.28 698.29"/><polygon class="cls-84" points="600.73 698.9 599.92 699.82 438.31 556.65 439.13 555.73 600.73 698.9"/><polygon class="cls-84" points="600.19 699.51 599.38 700.43 437.77 557.25 438.58 556.34 600.19 699.51"/><polygon class="cls-84" points="599.65 700.12 598.83 701.03 437.22 557.86 438.04 556.95 599.65 700.12"/><polygon class="cls-84" points="599.1 700.73 598.29 701.64 436.68 558.47 437.5 557.56 599.1 700.73"/><polygon class="cls-84" points="598.56 701.34 597.74 702.25 436.14 559.08 436.95 558.17 598.56 701.34"/><polygon class="cls-84" points="598.02 701.95 597.2 702.86 435.59 559.69 436.41 558.78 598.02 701.95"/><polygon class="cls-84" points="597.47 702.56 596.66 703.47 435.05 560.3 435.87 559.39 597.47 702.56"/><polygon class="cls-84" points="596.93 703.17 596.11 704.08 434.5 560.91 435.32 560 596.93 703.17"/><polygon class="cls-84" points="596.38 703.78 595.57 704.69 433.96 561.52 434.78 560.61 596.38 703.78"/><polygon class="cls-84" points="595.84 704.39 595.02 705.3 433.42 562.13 434.23 561.22 595.84 704.39"/><polygon class="cls-84" points="595.3 705 594.48 705.91 432.87 562.74 433.69 561.82 595.3 705"/><polygon class="cls-84" points="594.75 705.6 593.94 706.52 432.33 563.35 433.15 562.43 594.75 705.6"/><polygon class="cls-84" points="594.21 706.21 593.39 707.13 431.79 563.96 432.6 563.04 594.21 706.21"/><polygon class="cls-84" points="593.66 706.82 592.85 707.74 431.24 564.57 432.06 563.65 593.66 706.82"/><polygon class="cls-84" points="593.12 707.43 592.31 708.35 430.7 565.17 431.51 564.26 593.12 707.43"/><polygon class="cls-84" points="592.58 708.04 591.76 708.96 430.15 565.78 430.97 564.87 592.58 708.04"/><polygon class="cls-84" points="592.03 708.65 591.22 709.56 429.61 566.39 430.43 565.48 592.03 708.65"/><polygon class="cls-84" points="591.49 709.26 590.67 710.17 429.07 567 429.88 566.09 591.49 709.26"/><polygon class="cls-84" points="590.95 709.87 590.13 710.78 428.52 567.61 429.34 566.7 590.95 709.87"/><polygon class="cls-84" points="590.4 710.48 589.59 711.39 427.98 568.22 428.8 567.31 590.4 710.48"/><polygon class="cls-84" points="589.86 711.09 589.04 712 427.44 568.83 428.25 567.92 589.86 711.09"/><polygon class="cls-84" points="589.32 711.7 588.5 712.61 426.89 569.44 427.71 568.53 589.32 711.7"/><polygon class="cls-84" points="588.77 712.31 587.96 713.22 426.35 570.05 427.16 569.13 588.77 712.31"/><polygon class="cls-84" points="588.23 712.91 587.41 713.83 425.81 570.66 426.62 569.75 588.23 712.91"/><polygon class="cls-84" points="587.68 713.52 586.87 714.44 425.26 571.27 426.08 570.35 587.68 713.52"/><polygon class="cls-84" points="587.14 714.13 586.32 715.05 424.72 571.88 425.53 570.96 587.14 714.13"/><polygon class="cls-84" points="586.6 714.74 585.78 715.66 424.17 572.49 424.99 571.57 586.6 714.74"/><polygon class="cls-84" points="586.05 715.35 585.24 716.27 423.63 573.1 424.44 572.18 586.05 715.35"/><polygon class="cls-84" points="585.51 715.96 584.69 716.88 423.08 573.71 423.9 572.79 585.51 715.96"/><polygon class="cls-84" points="584.96 716.57 584.15 717.49 422.54 574.31 423.36 573.4 584.96 716.57"/><polygon class="cls-84" points="584.42 717.18 583.61 718.09 422 574.92 422.81 574.01 584.42 717.18"/><polygon class="cls-84" points="583.88 717.79 583.06 718.7 421.45 575.53 422.27 574.62 583.88 717.79"/><polygon class="cls-84" points="583.33 718.4 582.52 719.31 420.91 576.14 421.73 575.23 583.33 718.4"/><polygon class="cls-84" points="582.79 719.01 581.97 719.92 420.37 576.75 421.18 575.84 582.79 719.01"/><polygon class="cls-84" points="582.25 719.62 581.43 720.53 419.82 577.36 420.64 576.45 582.25 719.62"/><polygon class="cls-84" points="581.7 720.23 580.89 721.14 419.28 577.97 420.1 577.06 581.7 720.23"/><polygon class="cls-84" points="581.16 720.84 581.15 720.85 419.54 577.68 419.55 577.66 581.16 720.84"/></g><path class="cls-86" d="M545.27,393.53,522.8,330.94a25.27,25.27,0,0,1-.07-16.88l42.84-122.54,66.91,184.87a25.37,25.37,0,0,1-23.94,33.95h-39.3A25.47,25.47,0,0,1,545.27,393.53Z"/><path class="cls-87" d="M541.27,266.83c-4.76,5.11-3.18,5.89-3.75,14.21-.21,3.12-.52,6.8-.44,9.94.08,3.4-.28,3-1,5.95-.47,2.06-3.42,18.1-3.16,19.28,0,0,1.94,3.59,2,3.66l-2.2-3.44c-.27-.74.81-18.16.86-20.52.06-3.23-.36-3.14.5-6.14.78-2.69,1.47-6.46,2-9.35C537.59,272.35,535.85,271.45,541.27,266.83Z"/><path class="cls-87" d="M534.93,319.87c5.81,10.09,5.77,17.43,9.51,27.31,1.71,4.54.29-.12,1.2,4.44.5,2.49,3.47,9,4.56,11.44s6,12.37,7.47,13.21a.67.67,0,0,1-.19-.12c-2.44-2-8.77-13.29-10.63-16.66-1.18-2.12.2.42-1.73-2.73a40.09,40.09,0,0,1-2.12-4.13c-1.45-3-1-1.45-1.47-4.81C540.16,338.22,539.26,328.73,534.93,319.87Z"/><path class="cls-87" d="M555.36,376.34c2.5,2.61,3.11,2.72,5.39,4.7,4.58,4,5.25,9.68,10.63,5.24,3.63-3,6.15-6.48,11.24-6.29l1.69.25c4.59-1.43,9.76-8.05,11.16-13.92,1.63-6.81-.4-10.62-2.31-17.29.68,2,1.18,3.23,1.91,5.17,4.92,13.07-1.88,23.43-8.72,29.85-1.78,1.67-1.61.8-3.6.12-4.23-1.44-7.27,1.73-10.5,3.78-6.59,4.18-7.14-2-11.69-6.51A57,57,0,0,1,555.36,376.34Z"/><path class="cls-87" d="M614.68,343.85c4.78-2.72,8.22-.05,11-1.45,4.44-2.27-.88-19.22-2.19-24-3.59-13.07-7.56-22.95-17-31.09-7.94-6.85-12.39-.57-17.5,5.28-3,3.42-3.18,5.59-3.81,11-.41,3.46-1.06,11.61-2.75,14a3.37,3.37,0,0,1-.51.57c3.38,1.4,8.63-2.12,11.57-.3,1.75,1.09,2.41.91,4.16,1.39,7.75,2.11,8.48,9.56,5.32,16.79-3,6.89-9.79,11.82-15.78,14-5.82,2.08-14.46,1-17.54-8.29a75.83,75.83,0,0,1-2.22-12.44c-.15-5.74,5.05-12.13,8.74-13.82.76-.35,2.17-.27,2.7-1,2.55-3.32,2.77-7.45,3.56-12.09,1-5.89,1.42-8.45,5-12.12,5.9-6.1,11.1-12.35,19.8-4.41,9.51,8.7,13.46,18.9,16.91,32.4,1.29,5,6.38,22.2,1.67,24.45-2.85,1.35-6.24-1.43-11.08,1.16ZM581.82,318.2a5.27,5.27,0,0,1-3.07,1.22c-1.73.05-1.19-.14-3,1.09-2.81,1.92-6.35,5.44-5.89,10.33.41,4.44.82,10.82,3.73,14.25,5.25,6.21,13,3.73,17.94,1C597,343,602.75,338.23,603.91,330c1-6.84-2.86-9.33-7.49-10.55a7.21,7.21,0,0,1-3.07-1.26C590.6,316.4,585.2,319.77,581.82,318.2Z"/><path class="cls-87" d="M543.38,304.26c4.88,2,7.39,1.77,8.51-4.52.51-2.88.05-4.52-1.09-7.26a12.09,12.09,0,0,1,1.82,5.56c.36,4.42-.82,8.61-4,9.88-2.11.85-2,.28-4.38,1.68-1.12.07-2.22-1.06-2.46-2.54S542.26,304.33,543.38,304.26Z"/><path class="cls-87" d="M551.28,296.7c3.23.15,2.07-.11,5.26,1.13,1,.4,2.74-5.45,1.32-7.75-1.7-2.74-5.16-3.93-7.53-5.27,3.52,1.53,9.48,2.55,9.33,8.81-.28,11.79-4.93,4.4-6.18,8-1,.57-2.25-.07-2.85-1.43S550.31,297.27,551.28,296.7Z"/><path class="cls-87" d="M557.86,290.51c.66-.62,4.37-3.54,3.55-5.12-1.64-3.16-6.44-5.11-9-6.8,4,2,13.1,3.54,10.33,10.7-.91,2.37-1.11,1.22-1.08,4.12a1.65,1.65,0,0,1-2.72.79A3.42,3.42,0,0,1,557.86,290.51Z"/><path class="cls-87" d="M560,284.33a7.4,7.4,0,0,0,2.09-5c.18-3.63-4.48-5.41-6.94-7.15l-1.17-.86-.38-.18c.85.27.07,0,1.61.8,5.11,2.66,9.18,2.4,8.76,10.69a20.13,20.13,0,0,0-.09,4.29,1.66,1.66,0,0,1-2.65,1A3.41,3.41,0,0,1,560,284.33Z"/><path class="cls-87" d="M557.84,274.54c2-3.35.66-.84,1.54-3.11a35.91,35.91,0,0,1-5.08-2.38c-3.66-2.26-8.44-7-12.14-4.72,3.91-3,10.11,2.56,14.53,3.88,2.16.65,5.48-.1,5.29,4-.28,6-.1-3.53-.19,4.71a1.68,1.68,0,0,1-2.6,1.18,3.44,3.44,0,0,1-1.35-3.6Zm1.95-2.9a.25.25,0,0,0,.13.06Z"/><path class="cls-87" d="M564,276.3c.81,2.25.31,1.4,1.29,2.73-.74,1.24-.39.44-.8,2.61a2.89,2.89,0,0,1-2.3-2.79C562,277.38,562.85,276.24,564,276.3Z"/><path class="cls-87" d="M565.78,276.55c3,2.33,6.51,4.25,4.63,9.19-1.11,2.92-5.79,8.22-8,10l-1.47,1.1,1.35-1.3c1.74-1.77,7.26-9.4,6.6-12.56-.37-1.76-2.54-1.31-3.27-1.17a3.19,3.19,0,0,1-2-3.17C563.67,277.17,564.64,276.24,565.78,276.55Z"/><path class="cls-87" d="M550.22,312.2c-1.89-.1-2.55-.16-4,1.36-4.32,4.54.56,12.63,3.19,17.78.9,1.76,1.81,3.49,2.75,5.22-2.46-3.94-8.06-12.47-9-16.92-1.4-6.9,2.08-9.57,5.43-12.65,1-.33,2.26.56,2.71,2S551.28,311.86,550.22,312.2Z"/><path class="cls-87" d="M552.92,312.5c-.51,1.58-.39,2,.15,4.07,2.19,8.14,9.73,18.72,15.43,23.57.23.2,4,3.5,4.54,3.3-.22.1-.84-.27-1-.38-6-3.55-11.06-9.07-15.55-15.46-4-5.62-5.9-9.15-7.69-16.07,0-1.45,1-2.41,2.11-2.14A3.14,3.14,0,0,1,552.92,312.5Z"/><path class="cls-87" d="M599.63,316.08c5.35,1.26,6.2,2.41,10.62,7.73,3.54,4.26,8.47,9.26,13.12,7.57l1.36-.77c-1.65,1.17-2.22,1.6-4.38,1.42-7-.58-10.51-7.73-15.62-10.67-1.36-.78-2.67-1.33-3.58-.05-1.07.31-2.27-.61-2.69-2.06S598.57,316.39,599.63,316.08Z"/><path class="cls-87" d="M616.23,343.75c0-.12.08-.4,0-.53-.48.3-.67,6.53-.78,7.48-1.08,9.52-6.2,14.21-12,18.73-2.86,2.22-2.56,2.52-6.13,3.6-3.82,1.16-.39.05-3.4,1l1.37-.56c5-2,3.84-1.22,7.75-4.79,3.74-3.41,8-7.76,9.53-13.79,1.56-6.35-1-11.49.85-15.64.84-.82,2.15-.48,2.93.76A3.09,3.09,0,0,1,616.23,343.75Z"/><path class="cls-87" d="M612.2,329.91c-3.33.38-2.85.63-5.42,2.42-1,.66-.85.58-1.85,1.23.68-.85.8-1,1.43-1.88a18.61,18.61,0,0,0,3.15-6.35c.87-.76,2.18-.35,2.92.91A3,3,0,0,1,612.2,329.91Z"/><path class="cls-87" d="M595.47,361c2.24.61,3.94,0,5.94-.81,5.46-2.29,11.35-7.79,12.3-15.65a9.56,9.56,0,0,0-1-6,10,10,0,0,1,1.34,6.18c-.45,7.27-4.81,12.95-9.14,16.49-3,2.48-5.38,3.2-8.31,5.15-1.1.16-2.24-.89-2.55-2.36S594.37,361.15,595.47,361Z"/><path class="cls-87" d="M582.21,371.91a5.89,5.89,0,0,0-4.27,2.3c-.35.56.7,3.92-1.37,6.39a34.49,34.49,0,0,1-2.53,2.6,36.33,36.33,0,0,0,2.12-3.12c1.94-3.29-.93-5.13.82-8.25,1.18-2.09,1.43-1.77,2.53-4.5.87-.76,2.18-.36,2.92.91A3,3,0,0,1,582.21,371.91Z"/><path class="cls-87" d="M558.42,340.86c1.26,4.24,2.72,6.87,3.82,11.69,1.21,5.27,1.06,7.34,1.22,12.36.06,2.1.55,1.53,2.18.47a98.12,98.12,0,0,0,9.08-6.77c-2.1,2-4.05,3.92-6.28,5.72-2.51,2-5.73,6.17-6.14-.41-.41-6.41-2.48-15.89-7-20.3a3,3,0,0,1,.23-3.67C556.37,339.19,557.68,339.6,558.42,340.86Z"/><path class="cls-84" d="M163.17,633.68c29.62-3.06,67-1.68,93.59-8.06,34.41-8.23,59.78-25.58,65.8-42.91a65.69,65.69,0,0,0,4.36-7.9q7.69-16.44,17.18-38.95.75-1.73,1.47-3.42c5.81-13.65,10.6-26.08,14.51-37.27L532.79,0h87.75L516.77,297.82l-27.15-64.9L435.86,407.16,547.21,423,426.87,436.2c-16,43.58-36.46,110.4-55.05,148-12.19,24.66-42.12,38.21-70.21,44.06q-15.24,3.16-20.59,3.5C277.44,632,167.5,633.76,163.17,633.68Z"/></g><g id="Layer_2-2" data-name="Layer 2"><path class="cls-88" d="M127.6,758h36.72v16.61h-15v15.87h13.29v15.77H149.34v34.91H127.6V758Zm63.74,0v83.16H169.6V758Zm52.36,0v16.61H230.93v66.55H209.19V774.64H196.31V758Zm53.39,0v83.16h-19l-11.29-37.82v37.82H248.66V758h18.15l12.13,37.44V758Zm8.71,0H342v16.61H327.54v15.87h13.51v15.77H327.54v18.3h15.93v16.61H305.8V758Zm89.75,25.23H375.4v-6.15c0-2.88-.27-4.72-.78-5.5a2.79,2.79,0,0,0-2.55-1.18,3.26,3.26,0,0,0-2.95,1.6,9.05,9.05,0,0,0-1,4.8,13.44,13.44,0,0,0,1.15,6.25c.74,1.39,2.78,3.09,6.14,5.09,9.62,5.72,15.68,10.44,18.18,14.1s3.77,9.57,3.77,17.7c0,5.92-.71,10.28-2.1,13.11s-4.06,5.15-8.05,7A31.75,31.75,0,0,1,373.3,843a31.24,31.24,0,0,1-14.86-3.29c-4.1-2.19-6.77-5-8.05-8.36s-1.9-8.22-1.9-14.44v-5.45h20.15v10.11c0,3.12.28,5.12.85,6a3.26,3.26,0,0,0,3,1.33,3.51,3.51,0,0,0,3.22-1.7,9.53,9.53,0,0,0,1.06-5c0-4.89-.67-8.1-2-9.59s-4.76-4-10.15-7.57a100.48,100.48,0,0,1-10.69-7.76,18.17,18.17,0,0,1-4.34-6.68,29.24,29.24,0,0,1-1.73-10.88q0-9.54,2.45-14a16.43,16.43,0,0,1,7.89-6.91,31.57,31.57,0,0,1,13.18-2.49,34.69,34.69,0,0,1,14.39,2.72c3.95,1.82,6.57,4.1,7.86,6.87s1.93,7.43,1.93,14v3.3Zm54.58,0H430v-6.15c0-2.88-.26-4.72-.77-5.5a2.8,2.8,0,0,0-2.55-1.18,3.27,3.27,0,0,0-3,1.6,9.06,9.06,0,0,0-1,4.8,13.59,13.59,0,0,0,1.14,6.25c.74,1.39,2.78,3.09,6.14,5.09,9.62,5.72,15.69,10.44,18.19,14.1s3.76,9.57,3.76,17.7c0,5.92-.7,10.28-2.09,13.11s-4.06,5.15-8.06,7A31.7,31.7,0,0,1,427.88,843,31.18,31.18,0,0,1,413,839.68c-4.1-2.19-6.77-5-8.06-8.36s-1.9-8.22-1.9-14.44v-5.45h20.16v10.11c0,3.12.28,5.12.84,6a3.28,3.28,0,0,0,3,1.33,3.52,3.52,0,0,0,3.22-1.7,9.64,9.64,0,0,0,1-5c0-4.89-.66-8.1-2-9.59s-4.77-4-10.15-7.57a99.39,99.39,0,0,1-10.69-7.76,18.19,18.19,0,0,1-4.35-6.68,29.46,29.46,0,0,1-1.72-10.88q0-9.54,2.44-14a16.5,16.5,0,0,1,7.9-6.91,31.55,31.55,0,0,1,13.17-2.49,34.66,34.66,0,0,1,14.39,2.72c4,1.82,6.58,4.1,7.86,6.87s1.94,7.43,1.94,14Z"/><path class="cls-88" d="M528.06,794.3H506.32V779.86c0-4.21-.23-6.82-.68-7.87s-1.48-1.56-3.05-1.56q-2.64,0-3.36,1.89c-.47,1.28-.72,4-.72,8.22v38.59c0,4,.25,6.67.72,7.92s1.55,1.84,3.21,1.84a3,3,0,0,0,3.14-1.86c.5-1.23.74-4.14.74-8.71V807.86h21.74v3.24q0,12.93-1.83,18.33c-1.21,3.61-3.92,6.76-8.09,9.48S508.82,843,502.7,843c-6.35,0-11.59-1.13-15.72-3.43a16.78,16.78,0,0,1-8.2-9.53c-1.34-4.07-2-10.16-2-18.31V787.41a109.77,109.77,0,0,1,.62-13.47,18.86,18.86,0,0,1,3.69-8.66,20.48,20.48,0,0,1,8.5-6.55,30.67,30.67,0,0,1,12.5-2.39q9.59,0,15.83,3.7t8.2,9.2q1.95,5.52,1.95,17.15v7.91Zm57.27,12.47q0,12.54-.6,17.74a19.78,19.78,0,0,1-12.12,16.15A30.68,30.68,0,0,1,560.26,843a31.31,31.31,0,0,1-12-2.19,20,20,0,0,1-12.43-16,175.84,175.84,0,0,1-.62-18V792.54q0-12.52.6-17.73a19.82,19.82,0,0,1,3.69-9.53,20,20,0,0,1,8.43-6.62,30.66,30.66,0,0,1,12.34-2.32,31.55,31.55,0,0,1,12,2.19,20,20,0,0,1,12.43,16,175.6,175.6,0,0,1,.62,18v14.23Zm-21.74-27.31q0-5.79-.63-7.42a2.53,2.53,0,0,0-2.59-1.61,2.9,2.9,0,0,0-2.55,1.32c-.58.85-.88,3.43-.88,7.71v38.81c0,4.82.19,7.8.58,8.92a2.52,2.52,0,0,0,2.69,1.7,2.62,2.62,0,0,0,2.78-1.95c.41-1.3.6-4.4.6-9.28v-38.2ZM630.93,758l12.42,83.16H621.17L620,826.26h-7.82L611,841.19H588.53l11-83.16Zm-11.52,53.51q-1.54-14.14-3.29-35-3.21,24-4.08,35Zm78.32-17.24H676V779.86c0-4.21-.22-6.82-.68-7.87s-1.48-1.56-3-1.56c-1.76,0-2.89.63-3.36,1.89s-.72,4-.72,8.22v38.59c0,4,.24,6.67.72,7.92s1.54,1.84,3.2,1.84a3,3,0,0,0,3.14-1.86c.5-1.23.74-4.14.74-8.71V807.86h21.74v3.24q0,12.93-1.83,18.33c-1.21,3.61-3.92,6.76-8.09,9.48S678.49,843,672.37,843c-6.35,0-11.59-1.13-15.72-3.43a16.78,16.78,0,0,1-8.2-9.53c-1.34-4.07-2-10.16-2-18.31V787.41a110.21,110.21,0,0,1,.61-13.47,18.77,18.77,0,0,1,3.7-8.66,20.44,20.44,0,0,1,8.49-6.55,30.67,30.67,0,0,1,12.5-2.39q9.59,0,15.83,3.7c4.16,2.45,6.88,5.52,8.2,9.2s2,9.39,2,17.15v7.91ZM755.32,758v83.16H733.58V806.28h-6.33v34.91H705.51V758h21.74v29.75h6.33V758Z"/><path class="cls-89" d="M127.6,758h36.72v16.61h-15v15.87h13.29v15.77H149.34v34.91H127.6V758Zm63.74,0v83.16H169.6V758Zm52.36,0v16.61H230.93v66.55H209.19V774.64H196.31V758Zm53.39,0v83.16h-19l-11.29-37.82v37.82H248.66V758h18.15l12.13,37.44V758Zm8.71,0H342v16.61H327.54v15.87h13.51v15.77H327.54v18.3h15.93v16.61H305.8V758Zm89.75,25.23H375.4v-6.15c0-2.88-.27-4.72-.78-5.5a2.79,2.79,0,0,0-2.55-1.18,3.26,3.26,0,0,0-2.95,1.6,9.05,9.05,0,0,0-1,4.8,13.44,13.44,0,0,0,1.15,6.25c.74,1.39,2.78,3.09,6.14,5.09,9.62,5.72,15.68,10.44,18.18,14.1s3.77,9.57,3.77,17.7c0,5.92-.71,10.28-2.1,13.11s-4.06,5.15-8.05,7A31.75,31.75,0,0,1,373.3,843a31.24,31.24,0,0,1-14.86-3.29c-4.1-2.19-6.77-5-8.05-8.36s-1.9-8.22-1.9-14.44v-5.45h20.15v10.11c0,3.12.28,5.12.85,6a3.26,3.26,0,0,0,3,1.33,3.51,3.51,0,0,0,3.22-1.7,9.53,9.53,0,0,0,1.06-5c0-4.89-.67-8.1-2-9.59s-4.76-4-10.15-7.57a100.48,100.48,0,0,1-10.69-7.76,18.17,18.17,0,0,1-4.34-6.68,29.24,29.24,0,0,1-1.73-10.88q0-9.54,2.45-14a16.43,16.43,0,0,1,7.89-6.91,31.57,31.57,0,0,1,13.18-2.49,34.69,34.69,0,0,1,14.39,2.72c3.95,1.82,6.57,4.1,7.86,6.87s1.93,7.43,1.93,14v3.3Zm54.58,0H430v-6.15c0-2.88-.26-4.72-.77-5.5a2.8,2.8,0,0,0-2.55-1.18,3.27,3.27,0,0,0-3,1.6,9.06,9.06,0,0,0-1,4.8,13.59,13.59,0,0,0,1.14,6.25c.74,1.39,2.78,3.09,6.14,5.09,9.62,5.72,15.69,10.44,18.19,14.1s3.76,9.57,3.76,17.7c0,5.92-.7,10.28-2.09,13.11s-4.06,5.15-8.06,7A31.7,31.7,0,0,1,427.88,843,31.18,31.18,0,0,1,413,839.68c-4.1-2.19-6.77-5-8.06-8.36s-1.9-8.22-1.9-14.44v-5.45h20.16v10.11c0,3.12.28,5.12.84,6a3.28,3.28,0,0,0,3,1.33,3.52,3.52,0,0,0,3.22-1.7,9.64,9.64,0,0,0,1-5c0-4.89-.66-8.1-2-9.59s-4.77-4-10.15-7.57a99.39,99.39,0,0,1-10.69-7.76,18.19,18.19,0,0,1-4.35-6.68,29.46,29.46,0,0,1-1.72-10.88q0-9.54,2.44-14a16.5,16.5,0,0,1,7.9-6.91,31.55,31.55,0,0,1,13.17-2.49,34.66,34.66,0,0,1,14.39,2.72c4,1.82,6.58,4.1,7.86,6.87s1.94,7.43,1.94,14Z"/><path class="cls-90" d="M528.06,794.3H506.32V779.86c0-4.21-.23-6.82-.68-7.87s-1.48-1.56-3.05-1.56q-2.64,0-3.36,1.89c-.47,1.28-.72,4-.72,8.22v38.59c0,4,.25,6.67.72,7.92s1.55,1.84,3.21,1.84a3,3,0,0,0,3.14-1.86c.5-1.23.74-4.14.74-8.71V807.86h21.74v3.24q0,12.93-1.83,18.33c-1.21,3.61-3.92,6.76-8.09,9.48S508.82,843,502.7,843c-6.35,0-11.59-1.13-15.72-3.43a16.78,16.78,0,0,1-8.2-9.53c-1.34-4.07-2-10.16-2-18.31V787.41a109.77,109.77,0,0,1,.62-13.47,18.86,18.86,0,0,1,3.69-8.66,20.48,20.48,0,0,1,8.5-6.55,30.67,30.67,0,0,1,12.5-2.39q9.59,0,15.83,3.7t8.2,9.2q1.95,5.52,1.95,17.15v7.91Zm57.27,12.47q0,12.54-.6,17.74a19.78,19.78,0,0,1-12.12,16.15A30.68,30.68,0,0,1,560.26,843a31.31,31.31,0,0,1-12-2.19,20,20,0,0,1-12.43-16,175.84,175.84,0,0,1-.62-18V792.54q0-12.52.6-17.73a19.82,19.82,0,0,1,3.69-9.53,20,20,0,0,1,8.43-6.62,30.66,30.66,0,0,1,12.34-2.32,31.55,31.55,0,0,1,12,2.19,20,20,0,0,1,12.43,16,175.6,175.6,0,0,1,.62,18v14.23Zm-21.74-27.31q0-5.79-.63-7.42a2.53,2.53,0,0,0-2.59-1.61,2.9,2.9,0,0,0-2.55,1.32c-.58.85-.88,3.43-.88,7.71v38.81c0,4.82.19,7.8.58,8.92a2.52,2.52,0,0,0,2.69,1.7,2.62,2.62,0,0,0,2.78-1.95c.41-1.3.6-4.4.6-9.28v-38.2ZM630.93,758l12.42,83.16H621.17L620,826.26h-7.82L611,841.19H588.53l11-83.16Zm-11.52,53.51q-1.54-14.14-3.29-35-3.21,24-4.08,35Zm78.32-17.24H676V779.86c0-4.21-.22-6.82-.68-7.87s-1.48-1.56-3-1.56c-1.76,0-2.89.63-3.36,1.89s-.72,4-.72,8.22v38.59c0,4,.24,6.67.72,7.92s1.54,1.84,3.2,1.84a3,3,0,0,0,3.14-1.86c.5-1.23.74-4.14.74-8.71V807.86h21.74v3.24q0,12.93-1.83,18.33c-1.21,3.61-3.92,6.76-8.09,9.48S678.49,843,672.37,843c-6.35,0-11.59-1.13-15.72-3.43a16.78,16.78,0,0,1-8.2-9.53c-1.34-4.07-2-10.16-2-18.31V787.41a110.21,110.21,0,0,1,.61-13.47,18.77,18.77,0,0,1,3.7-8.66,20.44,20.44,0,0,1,8.49-6.55,30.67,30.67,0,0,1,12.5-2.39q9.59,0,15.83,3.7c4.16,2.45,6.88,5.52,8.2,9.2s2,9.39,2,17.15v7.91ZM755.32,758v83.16H733.58V806.28h-6.33v34.91H705.51V758h21.74v29.75h6.33V758Z"/><path class="cls-88" d="M.71,645H25.09q9.89,0,15.2,1.55a17.25,17.25,0,0,1,8,4.45,15.65,15.65,0,0,1,3.63,7.08,64.16,64.16,0,0,1,.94,12.86V679c0,5.9-.61,10.22-1.85,12.91a12.53,12.53,0,0,1-6.72,6.26q-4.92,2.16-12.83,2.17H25v37.4H.71V645ZM25,660.83v23.63q1,.06,1.77.06c2.22,0,3.75-.55,4.61-1.64s1.28-3.35,1.28-6.78v-7.65c0-3.16-.5-5.23-1.5-6.19s-3-1.43-6.16-1.43ZM59.79,645h40.37v18.53H84v17.7H99.1v17.59H84v20.41h17.77v18.52h-42V645Zm48.9,0h17.13Q143,645,149,646.31a16,16,0,0,1,9.88,6.74c2.55,3.6,3.83,9.37,3.83,17.26q0,10.82-2.71,14.54t-10.63,4.46c4.78,1.19,8,2.77,9.67,4.76a13.86,13.86,0,0,1,3.06,5.48q.62,2.49.61,13.71v24.49H140.24V706.89c0-5-.4-8-1.18-9.22s-2.8-1.78-6.12-1.78v41.86H108.69V645Zm24.25,15.83v20.64c2.71,0,4.59-.37,5.67-1.11s1.63-3.17,1.63-7.26V668c0-3-.53-4.88-1.57-5.8s-3-1.37-5.73-1.37Zm90.33,12.31H200.79v-6.86c0-3.2-.29-5.25-.86-6.13a3.12,3.12,0,0,0-2.85-1.31,3.61,3.61,0,0,0-3.29,1.78,10.08,10.08,0,0,0-1.12,5.35,15,15,0,0,0,1.28,7c.82,1.54,3.09,3.44,6.84,5.67q16.1,9.58,20.28,15.73t4.2,19.74q0,9.9-2.33,14.61c-1.55,3.13-4.53,5.75-9,7.86a35.36,35.36,0,0,1-15.49,3.19,34.85,34.85,0,0,1-16.58-3.68c-4.57-2.44-7.55-5.55-9-9.32s-2.12-9.17-2.12-16.1v-6.08h22.48v11.27c0,3.48.31,5.71.94,6.71a3.66,3.66,0,0,0,3.35,1.48,3.94,3.94,0,0,0,3.6-1.89,10.75,10.75,0,0,0,1.17-5.59c0-5.45-.74-9-2.23-10.69s-5.32-4.5-11.32-8.44a111.23,111.23,0,0,1-11.93-8.66,20.27,20.27,0,0,1-4.84-7.45,32.65,32.65,0,0,1-1.93-12.13q0-10.65,2.73-15.58a18.38,18.38,0,0,1,8.81-7.7,35.2,35.2,0,0,1,14.69-2.77,38.5,38.5,0,0,1,16,3c4.41,2,7.33,4.57,8.76,7.66s2.16,8.28,2.16,15.65v3.67Zm64.87,26.23a194.21,194.21,0,0,1-.67,19.78,22,22,0,0,1-4.11,10.63,22.41,22.41,0,0,1-9.4,7.39,34.17,34.17,0,0,1-13.77,2.58,35.09,35.09,0,0,1-13.4-2.45,21.82,21.82,0,0,1-9.55-7.29,22,22,0,0,1-4.32-10.59,199.24,199.24,0,0,1-.68-20V683.5q0-14,.66-19.78A22.09,22.09,0,0,1,237,653.09a22.31,22.31,0,0,1,9.4-7.38,34.17,34.17,0,0,1,13.77-2.58,35.13,35.13,0,0,1,13.4,2.44,22.29,22.29,0,0,1,13.86,17.88,195.49,195.49,0,0,1,.69,20v15.87ZM263.9,668.9q0-6.45-.71-8.26a2.79,2.79,0,0,0-2.88-1.8,3.25,3.25,0,0,0-2.85,1.46c-.65,1-1,3.84-1,8.6v43.29c0,5.37.22,8.7.65,9.95a2.8,2.8,0,0,0,3,1.89,2.92,2.92,0,0,0,3.1-2.17c.45-1.44.67-4.9.67-10.35V668.9ZM351.27,645v92.75H330.08l-12.59-42.17v42.17H297.24V645h20.25L331,686.77V645Zm51.47,0,13.85,92.75H391.85l-1.31-16.65h-8.73l-1.32,16.65H355.44L367.72,645Zm-12.85,59.69q-1.74-15.78-3.67-39.07-3.59,26.73-4.55,39.07ZM445,645v74.23h14.59v18.52H420.74V645Z"/><path class="cls-88" d="M535,645v18.53H520.75v74.22H496.5V663.53H482.14V645Zm5.53,0h17.12q17.13,0,23.19,1.31a16,16,0,0,1,9.89,6.74c2.55,3.6,3.82,9.37,3.82,17.26q0,10.82-2.71,14.54t-10.63,4.46c4.79,1.19,8,2.77,9.67,4.76a13.86,13.86,0,0,1,3.06,5.48q.62,2.49.61,13.71v24.49H572.06V706.89q0-7.44-1.18-9.22t-6.12-1.78v41.86H540.52V645Zm24.24,15.83v20.64c2.71,0,4.59-.37,5.67-1.11s1.63-3.17,1.63-7.26V668c0-3-.53-4.88-1.57-5.8s-3-1.37-5.73-1.37ZM645.66,645l13.85,92.75H634.77l-1.31-16.65h-8.73l-1.31,16.65h-25L610.65,645Zm-12.85,59.69q-1.72-15.78-3.67-39.07-3.58,26.73-4.55,39.07ZM687.91,645v92.75H663.67V645Zm63.7,0v92.75H730.42l-12.59-42.17v42.17H697.58V645h20.25l13.53,41.77V645Zm9.71,0h40.37v18.53H785.56v17.7h15.07v17.59H785.56v20.41h17.77v18.52h-42V645Zm48.9,0h17.12q17.13,0,23.19,1.31a16,16,0,0,1,9.89,6.74c2.55,3.6,3.82,9.37,3.82,17.26q0,10.82-2.71,14.54t-10.63,4.46c4.79,1.19,8,2.77,9.67,4.76a13.86,13.86,0,0,1,3.06,5.48q.61,2.49.61,13.71v24.49H841.76V706.89q0-7.44-1.18-9.22t-6.12-1.78v41.86H810.22V645Zm24.24,15.83v20.64c2.71,0,4.59-.37,5.67-1.11s1.63-3.17,1.63-7.26V668c0-3-.53-4.88-1.57-5.8S837.23,660.83,834.46,660.83Z"/><path class="cls-90" d="M.71,645H25.09q9.89,0,15.2,1.55a17.25,17.25,0,0,1,8,4.45,15.65,15.65,0,0,1,3.63,7.08,64.16,64.16,0,0,1,.94,12.86V679c0,5.9-.61,10.22-1.85,12.91a12.53,12.53,0,0,1-6.72,6.26q-4.92,2.16-12.83,2.17H25v37.4H.71V645ZM25,660.83v23.63q1,.06,1.77.06c2.22,0,3.75-.55,4.61-1.64s1.28-3.35,1.28-6.78v-7.65c0-3.16-.5-5.23-1.5-6.19s-3-1.43-6.16-1.43ZM59.79,645h40.37v18.53H84v17.7H99.1v17.59H84v20.41h17.77v18.52h-42V645Zm48.9,0h17.13Q143,645,149,646.31a16,16,0,0,1,9.88,6.74c2.55,3.6,3.83,9.37,3.83,17.26q0,10.82-2.71,14.54t-10.63,4.46c4.78,1.19,8,2.77,9.67,4.76a13.86,13.86,0,0,1,3.06,5.48q.62,2.49.61,13.71v24.49H140.24V706.89c0-5-.4-8-1.18-9.22s-2.8-1.78-6.12-1.78v41.86H108.69V645Zm24.25,15.83v20.64c2.71,0,4.59-.37,5.67-1.11s1.63-3.17,1.63-7.26V668c0-3-.53-4.88-1.57-5.8s-3-1.37-5.73-1.37Zm90.33,12.31H200.79v-6.86c0-3.2-.29-5.25-.86-6.13a3.12,3.12,0,0,0-2.85-1.31,3.61,3.61,0,0,0-3.29,1.78,10.08,10.08,0,0,0-1.12,5.35,15,15,0,0,0,1.28,7c.82,1.54,3.09,3.44,6.84,5.67q16.1,9.58,20.28,15.73t4.2,19.74q0,9.9-2.33,14.61c-1.55,3.13-4.53,5.75-9,7.86a35.36,35.36,0,0,1-15.49,3.19,34.85,34.85,0,0,1-16.58-3.68c-4.57-2.44-7.55-5.55-9-9.32s-2.12-9.17-2.12-16.1v-6.08h22.48v11.27c0,3.48.31,5.71.94,6.71a3.66,3.66,0,0,0,3.35,1.48,3.94,3.94,0,0,0,3.6-1.89,10.75,10.75,0,0,0,1.17-5.59c0-5.45-.74-9-2.23-10.69s-5.32-4.5-11.32-8.44a111.23,111.23,0,0,1-11.93-8.66,20.27,20.27,0,0,1-4.84-7.45,32.65,32.65,0,0,1-1.93-12.13q0-10.65,2.73-15.58a18.38,18.38,0,0,1,8.81-7.7,35.2,35.2,0,0,1,14.69-2.77,38.5,38.5,0,0,1,16,3c4.41,2,7.33,4.57,8.76,7.66s2.16,8.28,2.16,15.65v3.67Zm64.87,26.23a194.21,194.21,0,0,1-.67,19.78,22,22,0,0,1-4.11,10.63,22.41,22.41,0,0,1-9.4,7.39,34.17,34.17,0,0,1-13.77,2.58,35.09,35.09,0,0,1-13.4-2.45,21.82,21.82,0,0,1-9.55-7.29,22,22,0,0,1-4.32-10.59,199.24,199.24,0,0,1-.68-20V683.5q0-14,.66-19.78A22.09,22.09,0,0,1,237,653.09a22.31,22.31,0,0,1,9.4-7.38,34.17,34.17,0,0,1,13.77-2.58,35.13,35.13,0,0,1,13.4,2.44,22.29,22.29,0,0,1,13.86,17.88,195.49,195.49,0,0,1,.69,20v15.87ZM263.9,668.9q0-6.45-.71-8.26a2.79,2.79,0,0,0-2.88-1.8,3.25,3.25,0,0,0-2.85,1.46c-.65,1-1,3.84-1,8.6v43.29c0,5.37.22,8.7.65,9.95a2.8,2.8,0,0,0,3,1.89,2.92,2.92,0,0,0,3.1-2.17c.45-1.44.67-4.9.67-10.35V668.9ZM351.27,645v92.75H330.08l-12.59-42.17v42.17H297.24V645h20.25L331,686.77V645Zm51.47,0,13.85,92.75H391.85l-1.31-16.65h-8.73l-1.32,16.65H355.44L367.72,645Zm-12.85,59.69q-1.74-15.78-3.67-39.07-3.59,26.73-4.55,39.07ZM445,645v74.23h14.59v18.52H420.74V645Z"/><path class="cls-89" d="M535,645v18.53H520.75v74.22H496.5V663.53H482.14V645Zm5.53,0h17.12q17.13,0,23.19,1.31a16,16,0,0,1,9.89,6.74c2.55,3.6,3.82,9.37,3.82,17.26q0,10.82-2.71,14.54t-10.63,4.46c4.79,1.19,8,2.77,9.67,4.76a13.86,13.86,0,0,1,3.06,5.48q.62,2.49.61,13.71v24.49H572.06V706.89q0-7.44-1.18-9.22t-6.12-1.78v41.86H540.52V645Zm24.24,15.83v20.64c2.71,0,4.59-.37,5.67-1.11s1.63-3.17,1.63-7.26V668c0-3-.53-4.88-1.57-5.8s-3-1.37-5.73-1.37ZM645.66,645l13.85,92.75H634.77l-1.31-16.65h-8.73l-1.31,16.65h-25L610.65,645Zm-12.85,59.69q-1.72-15.78-3.67-39.07-3.58,26.73-4.55,39.07ZM687.91,645v92.75H663.67V645Zm63.7,0v92.75H730.42l-12.59-42.17v42.17H697.58V645h20.25l13.53,41.77V645Zm9.71,0h40.37v18.53H785.56v17.7h15.07v17.59H785.56v20.41h17.77v18.52h-42V645Zm48.9,0h17.12q17.13,0,23.19,1.31a16,16,0,0,1,9.89,6.74c2.55,3.6,3.82,9.37,3.82,17.26q0,10.82-2.71,14.54t-10.63,4.46c4.79,1.19,8,2.77,9.67,4.76a13.86,13.86,0,0,1,3.06,5.48q.61,2.49.61,13.71v24.49H841.76V706.89q0-7.44-1.18-9.22t-6.12-1.78v41.86H810.22V645Zm24.24,15.83v20.64c2.71,0,4.59-.37,5.67-1.11s1.63-3.17,1.63-7.26V668c0-3-.53-4.88-1.57-5.8S837.23,660.83,834.46,660.83Z"/></g></g></svg>